<?xml version="1.0" encoding="UTF-8" standalone="no"?>
<!-- Generator: Adobe Illustrator 18.0.0, SVG Export Plug-In . SVG Version: 6.00 Build 0)  -->

<svg
   xmlns:dc="http://purl.org/dc/elements/1.1/"
   xmlns:cc="http://creativecommons.org/ns#"
   xmlns:rdf="http://www.w3.org/1999/02/22-rdf-syntax-ns#"
   xmlns:svg="http://www.w3.org/2000/svg"
   xmlns="http://www.w3.org/2000/svg"
   xmlns:sodipodi="http://sodipodi.sourceforge.net/DTD/sodipodi-0.dtd"
   xmlns:inkscape="http://www.inkscape.org/namespaces/inkscape"
   version="1.1"
   id="Capa_1"
   x="0px"
   y="0px"
   viewBox="0 0 185.23847 150"
   xml:space="preserve"
   inkscape:version="0.48.4 r9939"
   width="100%"
   height="100%"
   sodipodi:docname="comunicate.svg"><metadata
     id="metadata5258"><rdf:RDF><cc:Work
         rdf:about=""><dc:format>image/svg+xml</dc:format><dc:type
           rdf:resource="http://purl.org/dc/dcmitype/StillImage" /><dc:title /></cc:Work></rdf:RDF></metadata><defs
     id="defs5256" /><sodipodi:namedview
     pagecolor="#ffffff"
     bordercolor="#666666"
     borderopacity="1"
     objecttolerance="10"
     gridtolerance="10"
     guidetolerance="10"
     inkscape:pageopacity="0"
     inkscape:pageshadow="2"
     inkscape:window-width="996"
     inkscape:window-height="480"
     id="namedview5254"
     showgrid="false"
     inkscape:zoom="0.95823944"
     inkscape:cx="-277.20702"
     inkscape:cy="41.885999"
     inkscape:window-x="1"
     inkscape:window-y="27"
     inkscape:window-maximized="0"
     inkscape:current-layer="Capa_1"
     fit-margin-top="0"
     fit-margin-left="0"
     fit-margin-right="0"
     fit-margin-bottom="0"
     showguides="true"
     inkscape:guide-bbox="true" /><g
     id="g5845"
     transform="translate(1.7389399e-6,-4.3327998e-7)"><path
       style="fill:#ff1000;fill-opacity:1"
       d="m 131.40247,53.553953 c -3.0717,10.157147 -10.25906,19.385789 -20.86523,26.50132 l -1.92169,15.061791 c -0.60434,4.713226 -3.7678,8.635586 -8.34301,10.257556 -1.311716,0.45015 -2.683226,0.67729 -4.073163,0.67729 -3.312007,0 -6.43222,-1.28163 -8.761945,-3.57412 L 77.341584,92.601563 c -5.031378,0.790489 -10.189113,1.184982 -15.385583,1.184982 -0.174871,0 -0.336955,-0.01655 -0.509945,-0.01655 -0.03497,0.561841 -0.126358,1.10676 -0.126358,1.676123 0,12.935142 8.534426,24.506672 21.949803,32.261512 l 2.473005,19.3809 c 0.161708,1.25757 1.012368,2.30528 2.210136,2.73099 1.184981,0.40765 2.515876,0.11395 3.414296,-0.77206 L 104.8658,135.8408 c 5.81472,1.22823 12.00889,1.89198 18.41667,1.89198 34.21404,0 61.956,-18.93564 61.956,-42.286659 0,-21.477465 -23.46421,-39.174345 -53.836,-41.892168 z m -8.12,50.054667 c -4.52294,0 -8.18092,-3.652348 -8.18092,-8.175286 0,-4.508646 3.65798,-8.16889 8.18092,-8.16889 4.51617,0 8.16287,3.659868 8.16287,8.16889 0,4.522938 -3.6467,8.175286 -8.16287,8.175286 z m 23.54846,0 c -4.52144,0 -8.17529,-3.652348 -8.17529,-8.175286 0,-4.508646 3.65385,-8.16889 8.17529,-8.16889 4.50864,0 8.17377,3.659868 8.17377,8.16889 3.8e-4,4.522938 -3.66475,8.175286 -8.17377,8.175286 z"
       id="path5220"
       inkscape:connector-curvature="0" /><path
       d="m 80.370789,82.695251 13.49924,13.20478 c 0.628781,0.623141 1.473423,0.952574 2.329348,0.952574 0.366664,0 0.731447,-0.05942 1.084948,-0.178631 1.19852,-0.426082 2.048428,-1.4738 2.210136,-2.731738 l 2.473009,-19.380149 c 13.415,-7.755218 21.9498,-19.326746 21.9498,-32.262264 C 123.91727,18.936015 96.175309,4.3328e-7 61.956001,4.3328e-7 27.74083,3.7649856e-4 -1.8998715e-6,18.936392 -1.8998715e-6,42.300199 -1.8998715e-6,65.649716 27.74083,84.587236 61.956001,84.587236 c 6.408152,0 12.600443,-0.663756 18.414788,-1.891985 z m 5.133668,-48.575976 c 4.521432,0 8.179043,3.657987 8.179043,8.168138 0,4.521433 -3.657987,8.175659 -8.179043,8.175659 -4.516544,0 -8.170395,-3.654226 -8.170395,-8.175659 3.76e-4,-4.510151 3.653851,-8.168138 8.170395,-8.168138 z M 38.405665,50.463072 c -4.508271,0 -8.173779,-3.654226 -8.173779,-8.175659 0,-4.510151 3.665508,-8.168138 8.173779,-8.168138 4.523313,0 8.175659,3.657987 8.175659,8.168138 0,4.521433 -3.652346,8.175659 -8.175659,8.175659 z m 15.385583,-8.175659 c 0,-4.510151 3.648961,-8.168138 8.164753,-8.168138 4.521057,0 8.17942,3.657987 8.17942,8.168138 0,4.521433 -3.658363,8.175659 -8.17942,8.175659 -4.515792,0 -8.164753,-3.654226 -8.164753,-8.175659 z"
       id="path5222"
       inkscape:connector-curvature="0" /></g><g
     id="g5224"
     transform="translate(-1.1673613e-7,-295.71792)" /><g
     id="g5226"
     transform="translate(-1.1673613e-7,-295.71792)" /><g
     id="g5228"
     transform="translate(-1.1673613e-7,-295.71792)" /><g
     id="g5230"
     transform="translate(-1.1673613e-7,-295.71792)" /><g
     id="g5232"
     transform="translate(-1.1673613e-7,-295.71792)" /><g
     id="g5234"
     transform="translate(-1.1673613e-7,-295.71792)" /><g
     id="g5236"
     transform="translate(-1.1673613e-7,-295.71792)" /><g
     id="g5238"
     transform="translate(-1.1673613e-7,-295.71792)" /><g
     id="g5240"
     transform="translate(-1.1673613e-7,-295.71792)" /><g
     id="g5242"
     transform="translate(-1.1673613e-7,-295.71792)" /><g
     id="g5244"
     transform="translate(-1.1673613e-7,-295.71792)" /><g
     id="g5246"
     transform="translate(-1.1673613e-7,-295.71792)" /><g
     id="g5248"
     transform="translate(-1.1673613e-7,-295.71792)" /><g
     id="g5250"
     transform="translate(-1.1673613e-7,-295.71792)" /><g
     id="g5252"
     transform="translate(-1.1673613e-7,-295.71792)" /></svg>