<?xml version="1.0" encoding="UTF-8" standalone="no"?>
<!-- Generator: Adobe Illustrator 16.0.0, SVG Export Plug-In . SVG Version: 6.00 Build 0)  -->

<svg
   xmlns:dc="http://purl.org/dc/elements/1.1/"
   xmlns:cc="http://creativecommons.org/ns#"
   xmlns:rdf="http://www.w3.org/1999/02/22-rdf-syntax-ns#"
   xmlns:svg="http://www.w3.org/2000/svg"
   xmlns="http://www.w3.org/2000/svg"
   xmlns:sodipodi="http://sodipodi.sourceforge.net/DTD/sodipodi-0.dtd"
   xmlns:inkscape="http://www.inkscape.org/namespaces/inkscape"
   version="1.1"
   id="Capa_1"
   x="0px"
   y="0px"
   width="174.3399"
   height="150.41499"
   viewBox="0 0 174.3399 150.415"
   xml:space="preserve"
   inkscape:version="0.48.4 r9939"
   sodipodi:docname="programming.svg"><metadata
     id="metadata4611"><rdf:RDF><cc:Work
         rdf:about=""><dc:format>image/svg+xml</dc:format><dc:type
           rdf:resource="http://purl.org/dc/dcmitype/StillImage" /><dc:title /></cc:Work></rdf:RDF></metadata><defs
     id="defs4609" /><sodipodi:namedview
     pagecolor="#ffffff"
     bordercolor="#666666"
     borderopacity="1"
     objecttolerance="10"
     gridtolerance="10"
     guidetolerance="10"
     inkscape:pageopacity="0"
     inkscape:pageshadow="2"
     inkscape:window-width="919"
     inkscape:window-height="480"
     id="namedview4607"
     showgrid="false"
     inkscape:zoom="0.5714341"
     inkscape:cx="206.498"
     inkscape:cy="178.15999"
     inkscape:window-x="0"
     inkscape:window-y="27"
     inkscape:window-maximized="0"
     inkscape:current-layer="Capa_1"
     fit-margin-top="0"
     fit-margin-left="0"
     fit-margin-right="0"
     fit-margin-bottom="0" /><g
     id="g5837"
     transform="matrix(0.4221346,0,0,0.4221346,-8.9136638e-7,-11.96245)"><path
       d="M 392.996,28.338 H 20 c -11.047,0 -20,8.954 -20,20 v 234 c 0,11.046 8.953,20 20,20 h 139.498 v 45.32 h -54.283 c -10.201,0 -18.5,8.299 -18.5,18.5 0,10.201 8.299,18.5 18.5,18.5 h 202.566 c 10.201,0 18.5,-8.299 18.5,-18.5 0,-10.201 -8.299,-18.5 -18.5,-18.5 h -54.283 v -45.32 h 139.498 c 11.047,0 20,-8.954 20,-20 v -234 c 0,-11.046 -8.953,-20 -20,-20 z m -10,244 H 30 v -214 h 352.996 v 214 z"
       id="path4569"
       inkscape:connector-curvature="0" /><path
       style="fill:#ff1000;fill-opacity:1"
       d="m 94.591,176.637 63.084,29.336 c 1.631,0.755 3.367,1.138 5.162,1.138 2.338,0 4.616,-0.664 6.597,-1.924 3.548,-2.267 5.666,-6.13 5.666,-10.335 v -0.322 c 0,-4.751 -2.785,-9.115 -7.096,-11.119 l -39.455,-18.33 39.456,-18.334 c 4.31,-2.004 7.095,-6.369 7.095,-11.118 v -0.319 c 0,-4.211 -2.119,-8.074 -5.665,-10.334 -1.962,-1.254 -4.247,-1.916 -6.606,-1.916 -1.778,0 -3.563,0.391 -5.16,1.133 L 94.59,153.525 c -4.308,2.005 -7.091,6.369 -7.091,11.117 v 0.878 c -10e-4,4.742 2.781,9.105 7.092,11.117 z"
       id="path4571"
       inkscape:connector-curvature="0" /><path
       style="fill:#ff1000;fill-opacity:1"
       d="m 175.662,236.389 c 2.301,3.149 6.002,5.029 9.901,5.029 h 0.315 c 5.352,0 10.042,-3.426 11.672,-8.516 l 41.557,-128.76 c 1.192,-3.717 0.53,-7.818 -1.771,-10.974 -2.301,-3.149 -6.002,-5.03 -9.901,-5.03 h -0.314 c -5.354,0 -10.048,3.426 -11.679,8.516 L 173.88,225.425 c -1.182,3.72 -0.516,7.817 1.782,10.964 z"
       id="path4573"
       inkscape:connector-curvature="0" /><path
       style="fill:#ff1000;fill-opacity:1"
       d="m 237.896,135.628 c 0,4.746 2.782,9.11 7.095,11.122 l 39.455,18.33 -39.455,18.33 c -4.311,2.004 -7.096,6.368 -7.096,11.119 v 0.322 c 0,4.205 2.117,8.068 5.669,10.336 1.974,1.258 4.254,1.923 6.595,1.923 1.792,0 3.527,-0.383 5.169,-1.142 l 63.081,-29.335 c 4.307,-2.009 7.089,-6.372 7.089,-11.115 v -0.878 c 0,-4.748 -2.783,-9.112 -7.093,-11.117 l -63.08,-29.334 c -1.591,-0.739 -3.373,-1.131 -5.152,-1.131 -2.358,0 -4.644,0.662 -6.604,1.912 -3.554,2.264 -5.673,6.127 -5.673,10.338 v 0.32 l 0,0 z"
       id="path4575"
       inkscape:connector-curvature="0" /></g><g
     id="g4577"
     transform="translate(-8.9136638e-7,-234.243)" /><g
     id="g4579"
     transform="translate(-8.9136638e-7,-234.243)" /><g
     id="g4581"
     transform="translate(-8.9136638e-7,-234.243)" /><g
     id="g4583"
     transform="translate(-8.9136638e-7,-234.243)" /><g
     id="g4585"
     transform="translate(-8.9136638e-7,-234.243)" /><g
     id="g4587"
     transform="translate(-8.9136638e-7,-234.243)" /><g
     id="g4589"
     transform="translate(-8.9136638e-7,-234.243)" /><g
     id="g4591"
     transform="translate(-8.9136638e-7,-234.243)" /><g
     id="g4593"
     transform="translate(-8.9136638e-7,-234.243)" /><g
     id="g4595"
     transform="translate(-8.9136638e-7,-234.243)" /><g
     id="g4597"
     transform="translate(-8.9136638e-7,-234.243)" /><g
     id="g4599"
     transform="translate(-8.9136638e-7,-234.243)" /><g
     id="g4601"
     transform="translate(-8.9136638e-7,-234.243)" /><g
     id="g4603"
     transform="translate(-8.9136638e-7,-234.243)" /><g
     id="g4605"
     transform="translate(-8.9136638e-7,-234.243)" /></svg>