<?xml version="1.0" encoding="UTF-8" standalone="no"?>
<!-- Generator: Adobe Illustrator 16.0.0, SVG Export Plug-In . SVG Version: 6.00 Build 0)  -->

<svg
   xmlns:dc="http://purl.org/dc/elements/1.1/"
   xmlns:cc="http://creativecommons.org/ns#"
   xmlns:rdf="http://www.w3.org/1999/02/22-rdf-syntax-ns#"
   xmlns:svg="http://www.w3.org/2000/svg"
   xmlns="http://www.w3.org/2000/svg"
   xmlns:sodipodi="http://sodipodi.sourceforge.net/DTD/sodipodi-0.dtd"
   xmlns:inkscape="http://www.inkscape.org/namespaces/inkscape"
   version="1.1"
   id="Capa_1"
   x="0px"
   y="0px"
   width="200"
   height="251.45284"
   viewBox="0 0 200 251.45283"
   xml:space="preserve"
   inkscape:version="0.48.4 r9939"
   sodipodi:docname="RedBeardLab.svg"
   inkscape:export-filename="/home/simo/freelancer-theme/img/RedBeardLab.png"
   inkscape:export-xdpi="107.14286"
   inkscape:export-ydpi="107.14286"><metadata
     id="metadata45"><rdf:RDF><cc:Work
         rdf:about=""><dc:format>image/svg+xml</dc:format><dc:type
           rdf:resource="http://purl.org/dc/dcmitype/StillImage" /><dc:title></dc:title></cc:Work></rdf:RDF></metadata><defs
     id="defs43" /><sodipodi:namedview
     pagecolor="#ffffff"
     bordercolor="#666666"
     borderopacity="1"
     objecttolerance="10"
     gridtolerance="10"
     guidetolerance="10"
     inkscape:pageopacity="0"
     inkscape:pageshadow="2"
     inkscape:window-width="1366"
     inkscape:window-height="702"
     id="namedview41"
     showgrid="false"
     inkscape:zoom="1.3732308"
     inkscape:cx="-44.285785"
     inkscape:cy="184.4808"
     inkscape:window-x="0"
     inkscape:window-y="27"
     inkscape:window-maximized="1"
     inkscape:current-layer="Capa_1"
     fit-margin-top="0"
     fit-margin-left="0"
     fit-margin-right="0"
     fit-margin-bottom="0" /><g
     id="g11"
     transform="translate(0,-78.831385)" /><g
     id="g13"
     transform="translate(0,-78.831385)" /><g
     id="g15"
     transform="translate(0,-78.831385)" /><g
     id="g17"
     transform="translate(0,-78.831385)" /><g
     id="g19"
     transform="translate(0,-78.831385)" /><g
     id="g21"
     transform="translate(0,-78.831385)" /><g
     id="g23"
     transform="translate(0,-78.831385)" /><g
     id="g25"
     transform="translate(0,-78.831385)" /><g
     id="g27"
     transform="translate(0,-78.831385)" /><g
     id="g29"
     transform="translate(0,-78.831385)" /><g
     id="g31"
     transform="translate(0,-78.831385)" /><g
     id="g33"
     transform="translate(0,-78.831385)" /><g
     id="g35"
     transform="translate(0,-78.831385)" /><g
     id="g37"
     transform="translate(0,-78.831385)" /><g
     id="g39"
     transform="translate(0,-78.831385)" /><g
     id="g3001"
     transform="matrix(0.58187573,0,0,0.58187573,0,-1.163754)"><g
       style="fill:#ff1000;fill-opacity:1"
       transform="translate(0,103.85796)"
       id="g3"><g
         style="fill:#ff1000;fill-opacity:1"
         id="g5"><path
           style="fill:#ff1000;fill-opacity:1"
           inkscape:connector-curvature="0"
           id="path7"
           d="M 256.534,56.725 C 249.306,20.065 186.449,-1.637 171.852,25.839 157.261,-1.655 94.404,20.047 87.181,56.725 77.734,95.037 27.75,105.582 0,85.59 c 0,43.311 46.644,43.871 75.51,46.644 68.375,-2.989 89.978,-34.523 96.342,-48.921 6.37,14.41 27.979,45.932 96.348,48.921 28.889,-2.773 75.516,-3.333 75.516,-46.644 -27.768,19.992 -77.735,9.447 -87.182,-28.865 z" /><path
           style="fill:#ff1000;fill-opacity:1"
           inkscape:connector-curvature="0"
           id="path9"
           d="m 170.894,98.908 c -37.845,51.718 -113.846,40 -113.846,40 0,0 -3.597,70.839 18.713,89.359 -1.396,82.452 87.841,100.562 110.208,101.965 22.373,1.389 65.1,-25.445 56.098,-41.863 18.263,-17.924 24.241,-39.971 22.35,-61.491 19.57,-2.79 8.617,-86.095 8.617,-86.095 0,0 -77.793,2.848 -102.14,-41.875 z" /></g></g><path
       sodipodi:nodetypes="cccccccccccccccsccccsscccccs"
       inkscape:connector-curvature="0"
       id="path11"
       d="m 44.09375,52.6875 c 2.854167,16.354167 5.708333,32.708333 8.5625,49.0625 36.895833,0 73.79167,0 110.6875,0 0,-22.5625 0,-66.265625 0,-66.265625 l 18.5625,0 c 0,0 -0.0844,18.722612 0.5625,27.234375 0,13.010417 0,26.020833 0,39.03125 36.95833,0 73.91667,0 110.875,0 5.07752,-33.247713 10.1404,-66.497656 15.1875,-99.75 -42.02083,0 -84.04167,0 -126.0625,0 0,7.8645833 -0.25746,21.270761 -0.25746,21.270761 l -18.30504,0 c 0,0 0.0802,-14.4465582 -0.5625,-21.270761 C 120.64583,2 77.947917,2 35.25,2 c 2.947917,16.895833 5.895833,33.791667 8.84375,50.6875 z m 15,-32.65625 c 28.739583,0 57.47917,0 86.21875,0 0,21.229167 0,42.458333 0,63.6875 -25.84375,0 -51.6875,0 -77.53125,0 -3.674252,-21.231443 -7.379352,-42.457582 -11.0625,-63.6875 0.791667,0 1.583333,0 2.375,0 z m 143.4375,0 c 28.32292,0 56.64583,0 84.96875,0 -3.19453,21.231237 -6.42915,42.456464 -9.625,63.6875 -25.78125,0 -51.5625,0 -77.34375,0 0,-21.229167 0,-42.458333 0,-63.6875 l 1,0 z"
       style="fill:#000000;fill-opacity:1" /></g></svg>